<?xml version="1.0" encoding="UTF-8"?><svg xmlns="http://www.w3.org/2000/svg" xmlns:xlink="http://www.w3.org/1999/xlink" width="375" zoomAndPan="magnify" viewBox="0 0 375 374.999991" height="374.999991" preserveAspectRatio="xMidYMid meet" version="1.0"><defs><clipPath id="clip-0"><path d="M 102.015625 0 L 273 0 L 273 348.75 L 102.015625 348.75 Z M 102.015625 0 " clip-rule="nonzero"/></clipPath></defs><g clip-path="url(#clip-0)"><path fill="rgb(94.898987%, 45.489502%, 1.959229%)" d="M 174.726562 100.921875 L 180.394531 100.921875 C 212.214844 100.921875 238.105469 126.792969 238.105469 158.59375 L 238.105469 291 L 176.128906 330.929688 L 117.015625 291.101562 L 117.015625 158.59375 C 117.015625 126.792969 142.90625 100.921875 174.726562 100.921875 Z M 102.09375 158.59375 L 102.09375 299.027344 L 175.945312 348.789062 L 253.027344 299.128906 L 253.027344 158.59375 C 253.027344 132.160156 238.808594 108.992188 217.625 96.296875 L 272.921875 78.289062 C 267.78125 62.523438 252.523438 52.882812 236.671875 54.195312 L 259.941406 19.269531 C 241.96875 7.308594 219.023438 8.652344 202.710938 20.945312 L 202.464844 0.0429688 C 175.308594 0.355469 153.527344 22.472656 153.554688 49.542969 L 140.328125 32.058594 C 124.84375 43.75 121.773438 65.777344 133.472656 81.253906 C 136.992188 85.90625 141.449219 89.425781 146.371094 91.773438 C 120.371094 102.832031 102.09375 128.617188 102.09375 158.59375 " fill-opacity="1" fill-rule="nonzero"/></g><path fill="rgb(94.898987%, 45.489502%, 1.959229%)" d="M 177.144531 191.269531 L 185.105469 198.566406 L 176.40625 207.929688 L 167.542969 197.960938 Z M 206.257812 197.714844 L 178.410156 172.203125 L 145.238281 195.332031 L 176.164062 230.101562 L 206.257812 197.714844 " fill-opacity="1" fill-rule="nonzero"/><path fill="rgb(94.898987%, 45.489502%, 1.959229%)" d="M 176.210938 234.992188 L 176.210938 234.746094 C 176.210938 234.746094 170.742188 244.96875 162.78125 260.238281 C 154.824219 275.503906 168.464844 284.195312 175.574219 284.820312 C 182.679688 284.195312 196.316406 275.503906 188.359375 260.238281 C 180.402344 244.96875 176.210938 234.992188 176.210938 234.992188 " fill-opacity="1" fill-rule="nonzero"/><path fill="rgb(94.898987%, 45.489502%, 1.959229%)" d="M 152.554688 170.792969 C 155.027344 170.792969 157.03125 168.792969 157.03125 166.320312 C 157.03125 163.847656 155.027344 161.84375 152.554688 161.84375 C 150.082031 161.84375 148.078125 163.847656 148.078125 166.320312 C 148.078125 168.792969 150.082031 170.792969 152.554688 170.792969 " fill-opacity="1" fill-rule="nonzero"/><path fill="rgb(94.898987%, 45.489502%, 1.959229%)" d="M 199.808594 170.792969 C 202.277344 170.792969 204.285156 168.792969 204.285156 166.320312 C 204.285156 163.847656 202.277344 161.84375 199.808594 161.84375 C 197.335938 161.84375 195.332031 163.847656 195.332031 166.320312 C 195.332031 168.792969 197.335938 170.792969 199.808594 170.792969 " fill-opacity="1" fill-rule="nonzero"/></svg>