<?xml version="1.0" encoding="UTF-8"?><svg xmlns="http://www.w3.org/2000/svg" xmlns:xlink="http://www.w3.org/1999/xlink" width="375" zoomAndPan="magnify" viewBox="0 0 375 374.999991" height="374.999991" preserveAspectRatio="xMidYMid meet" version="1.0"><defs><clipPath id="clip-0"><path d="M 129.84375 112.5 L 245 112.5 L 245 262.5 L 129.84375 262.5 Z M 129.84375 112.5 " clip-rule="nonzero"/></clipPath><clipPath id="clip-1"><path d="M 187.5 140 L 281.25 140 L 281.25 262.5 L 187.5 262.5 Z M 187.5 140 " clip-rule="nonzero"/></clipPath><clipPath id="clip-2"><path d="M 214 112.5 L 265 112.5 L 265 210 L 214 210 Z M 214 112.5 " clip-rule="nonzero"/></clipPath><clipPath id="clip-3"><path d="M 123 104 L 173 104 L 173 135 L 123 135 Z M 123 104 " clip-rule="nonzero"/></clipPath><clipPath id="clip-4"><path d="M 162.066406 92.757812 L 174.773438 132.789062 L 134.738281 145.496094 L 122.035156 105.464844 Z M 162.066406 92.757812 " clip-rule="nonzero"/></clipPath><clipPath id="clip-5"><path d="M 162.066406 92.757812 L 174.773438 132.789062 L 134.738281 145.496094 L 122.035156 105.464844 Z M 162.066406 92.757812 " clip-rule="nonzero"/></clipPath></defs><g clip-path="url(#clip-0)"><path fill="rgb(94.898987%, 52.938843%, 1.959229%)" d="M 200.933594 236.914062 C 200.933594 236.914062 200.101562 243.066406 199.472656 243.585938 C 198.847656 244.109375 197.070312 245.878906 196.238281 246.089844 C 195.402344 246.296875 192.894531 246.503906 191.746094 246.402344 C 191.746094 246.402344 188.613281 246.609375 188.929688 245.878906 C 189.242188 245.148438 192.164062 238.0625 193 237.332031 C 193.835938 236.601562 194.984375 235.976562 195.609375 235.769531 C 196.238281 235.558594 198.429688 233.890625 199.265625 232.328125 C 199.265625 232.328125 200.308594 231.703125 200.933594 232.121094 C 201.5625 232.535156 200.933594 236.914062 200.933594 236.914062 Z M 244.738281 168.792969 C 244.839844 167.957031 244.578125 166.082031 244.320312 165.71875 C 244.058594 165.351562 244.320312 164.207031 244.371094 163.164062 C 244.421875 162.121094 243.273438 160.191406 242.960938 159.828125 C 242.648438 159.464844 242.804688 157.066406 242.804688 156.441406 C 242.804688 155.8125 243.117188 154.667969 243.535156 153.988281 C 243.953125 153.3125 244.265625 150.445312 243.796875 149.976562 C 243.328125 149.507812 242.804688 149.195312 242.804688 148.621094 C 242.804688 148.046875 243.535156 146.691406 243.796875 146.121094 C 244.058594 145.546875 244.996094 142.886719 244.996094 142.054688 C 244.996094 141.21875 243.902344 140.855469 243.484375 140.074219 C 243.066406 139.292969 243.746094 138.5625 244.109375 137.726562 C 244.476562 136.894531 242.699219 135.800781 242.125 135.382812 C 241.550781 134.964844 241.238281 134.289062 240.769531 132.933594 C 240.300781 131.578125 238.210938 131.109375 237.949219 130.273438 C 237.6875 129.441406 236.75 128.554688 236.175781 128.347656 C 235.601562 128.136719 235.601562 127.929688 235.601562 127.929688 C 235.601562 125.53125 233.25 126.835938 233.40625 125.738281 C 233.566406 124.644531 231.839844 124.488281 230.484375 124.699219 C 229.125 124.90625 228.96875 124.332031 228.96875 124.332031 C 228.8125 121.363281 223.90625 120.058594 219.363281 123.96875 C 214.820312 127.878906 213.933594 136.058594 213.515625 136.582031 C 213.097656 137.101562 213.414062 139.8125 212.734375 140.648438 C 212.054688 141.480469 212.160156 145.546875 211.953125 147.109375 C 211.742188 148.671875 209.183594 152.21875 208.035156 153.414062 C 206.886719 154.613281 202.867188 157.378906 200.933594 157.691406 C 199.003906 158.003906 184.59375 159.097656 181.515625 158.210938 C 178.433594 157.324219 176.710938 154.71875 173.996094 151.28125 C 171.28125 147.839844 169.039062 142.054688 168.722656 141.0625 C 168.410156 140.074219 165.226562 134.289062 164.652344 133.347656 C 164.078125 132.410156 161.257812 129.179688 160.164062 128.085938 C 159.066406 126.992188 157.1875 125.324219 155.722656 124.28125 C 154.261719 123.238281 150.921875 121.621094 150.035156 121.101562 C 149.148438 120.578125 150.035156 119.953125 150.035156 119.953125 C 151.601562 119.695312 152.28125 118.808594 152.175781 117.871094 C 152.070312 116.929688 151.390625 116.984375 151.339844 115.992188 C 151.289062 115.003906 150.296875 115.054688 149.929688 115.367188 C 149.5625 115.679688 148.9375 116.253906 148.46875 116.097656 C 147.996094 115.941406 148.207031 113.386719 147.84375 113.335938 C 147.476562 113.28125 147.214844 116.148438 146.796875 116.148438 C 146.378906 116.148438 146.433594 114.898438 146.121094 114.324219 C 145.804688 113.753906 145.441406 114.273438 144.96875 115.785156 C 144.5 117.296875 143.769531 116.253906 143.5625 115.941406 C 143.351562 115.628906 141.941406 112.8125 141.421875 112.65625 C 140.898438 112.5 141.734375 115.890625 141.316406 116.359375 C 140.898438 116.828125 139.960938 114.691406 139.070312 114.378906 C 138.183594 114.066406 139.644531 117.503906 138.914062 117.816406 C 138.183594 118.128906 137.609375 117.085938 137.242188 116.722656 C 136.878906 116.359375 137.085938 118.546875 137.085938 119.222656 C 137.085938 119.902344 137.085938 120.164062 135.992188 119.746094 C 134.894531 119.328125 135.417969 121.464844 134.945312 121.207031 C 134.476562 120.945312 134.894531 122.875 134.894531 124.019531 C 134.894531 125.167969 134.113281 125.585938 133.484375 125.375 C 132.859375 125.167969 133.433594 127.25 133.433594 127.25 C 133.433594 127.25 133.535156 127.773438 132.964844 128.035156 C 132.390625 128.292969 130.71875 129.492188 130.507812 129.753906 C 130.300781 130.015625 129.988281 131.054688 129.9375 131.683594 C 129.882812 132.308594 131.867188 131.941406 132.074219 131.839844 C 132.285156 131.734375 134.53125 130.796875 135.574219 131.054688 C 136.617188 131.316406 136.828125 131.527344 136.667969 132.097656 C 136.511719 132.671875 135.46875 133.871094 136.199219 136.683594 C 136.929688 139.5 140.21875 141.324219 141.839844 141.429688 C 143.457031 141.535156 144.082031 140.386719 144.238281 140.074219 C 144.398438 139.761719 144.867188 139.1875 145.597656 139.917969 C 146.328125 140.648438 146.378906 142.628906 146.378906 143.199219 C 146.378906 143.773438 145.492188 145.234375 145.441406 147.214844 C 145.386719 149.195312 144.710938 154.5625 144.710938 155.5 C 144.710938 156.441406 143.457031 162.589844 142.570312 164.777344 C 141.679688 166.96875 140.636719 172.023438 140.742188 173.222656 C 140.847656 174.421875 140.375 176.921875 139.226562 185.886719 C 138.078125 194.851562 141.160156 199.492188 142.046875 201.105469 C 142.933594 202.722656 149.617188 209.96875 151.390625 210.957031 C 153.167969 211.949219 157.03125 211.324219 158.804688 213.199219 C 160.582031 215.078125 162.878906 214.816406 164.703125 216.691406 C 166.53125 218.566406 169.296875 219.871094 170.082031 220.339844 C 170.863281 220.808594 173.476562 222.789062 174.726562 224.511719 C 175.980469 226.230469 177.597656 227.535156 178.488281 227.847656 C 179.375 228.160156 179.21875 228.574219 179.113281 230.191406 C 179.007812 231.808594 180.574219 233.371094 181.933594 233.996094 C 183.289062 234.621094 184.648438 234.671875 186.003906 235.558594 C 187.363281 236.445312 187.308594 236.757812 187.464844 237.75 C 187.621094 238.738281 185.742188 244.210938 185.378906 245.046875 C 185.011719 245.878906 181.460938 253.386719 181.042969 253.90625 C 180.628906 254.425781 180.367188 255.9375 180.210938 256.09375 C 180.054688 256.25 178.957031 255.992188 178.589844 255.9375 C 178.226562 255.886719 176.085938 255.367188 175.40625 255.050781 C 174.726562 254.738281 173.527344 254.425781 173.058594 254.375 C 172.585938 254.324219 171.699219 254.6875 171.386719 254.792969 C 171.074219 254.894531 170.863281 255.367188 170.863281 255.367188 L 171.28125 255.367188 C 171.28125 255.367188 171.492188 255.625 171.804688 255.78125 C 172.117188 255.9375 174.257812 255.992188 174.625 256.148438 C 174.988281 256.304688 176.136719 256.980469 176.035156 257.191406 C 175.929688 257.398438 171.960938 257.660156 170.550781 257.605469 C 169.140625 257.554688 167 257.816406 166.167969 257.816406 C 165.332031 257.816406 165.121094 258.546875 164.128906 258.859375 C 163.136719 259.171875 162.824219 259.902344 162.824219 259.902344 C 162.824219 259.902344 163.816406 259.691406 164.128906 259.847656 C 164.445312 260.003906 165.226562 260.214844 165.644531 260.109375 C 166.0625 260.003906 168.359375 260.058594 170.238281 260.003906 C 172.117188 259.953125 175.40625 260.003906 176.347656 260.058594 C 177.285156 260.109375 179.476562 258.703125 179.113281 259.066406 C 178.746094 259.433594 178.644531 260.527344 178.90625 261.257812 C 179.164062 261.984375 179.6875 262.507812 179.792969 262.195312 C 179.894531 261.882812 180.105469 261.359375 180.472656 261.203125 C 180.835938 261.046875 183.082031 258.753906 183.601562 258.441406 C 184.125 258.128906 185.691406 257.347656 186.160156 257.242188 C 186.632812 257.136719 188.71875 257.761719 189.710938 258.023438 C 190.703125 258.285156 191.539062 258.078125 191.589844 257.867188 C 191.640625 257.660156 193.207031 258.023438 193.261719 257.761719 C 193.3125 257.503906 192.582031 257.347656 192.320312 257.242188 C 192.0625 257.136719 191.277344 256.980469 189.921875 256.5625 C 188.5625 256.148438 187.570312 255.3125 187.152344 254.792969 C 186.734375 254.269531 186.789062 253.175781 187.414062 250.621094 C 188.039062 248.070312 188.613281 247.496094 188.613281 247.496094 C 189.085938 247.390625 189.5 247.652344 189.921875 247.808594 C 190.335938 247.964844 194.722656 248.171875 195.347656 248.121094 C 195.976562 248.070312 198.011719 247.601562 197.90625 248.015625 C 197.800781 248.433594 196.8125 249.269531 196.082031 249.789062 C 195.347656 250.308594 194.042969 250.988281 192.84375 251.351562 C 191.640625 251.71875 190.441406 252.601562 190.078125 252.757812 C 189.710938 252.914062 189.398438 253.386719 188.769531 253.75 C 188.144531 254.113281 188.40625 255.3125 188.40625 255.3125 C 188.40625 255.3125 188.769531 254.636719 189.242188 254.6875 C 189.710938 254.738281 190.496094 254.582031 191.066406 254.53125 C 191.640625 254.480469 192.476562 253.28125 193.785156 253.070312 C 195.089844 252.863281 195.976562 252.394531 197.699219 251.664062 C 199.421875 250.933594 200.832031 249.527344 201.351562 249.058594 C 201.875 248.589844 204.589844 248.953125 205.164062 248.796875 C 205.738281 248.640625 206.625 249.894531 206.9375 250.675781 C 207.253906 251.457031 207.722656 252.550781 208.191406 252.757812 C 208.660156 252.96875 208.503906 253.957031 208.660156 253.957031 C 208.820312 253.957031 209.289062 253.957031 209.390625 253.28125 C 209.496094 252.601562 207.355469 244.941406 207.148438 243.691406 C 206.9375 242.441406 208.089844 242.386719 209.078125 242.699219 C 210.070312 243.011719 210.800781 243.011719 211.429688 242.910156 C 212.054688 242.804688 213.414062 243.066406 213.414062 242.855469 C 213.414062 242.648438 212.472656 242.285156 211.953125 242.179688 C 211.429688 242.074219 209.078125 241.34375 208.089844 240.929688 C 207.09375 240.511719 206.625 239.9375 206.105469 238.6875 C 205.582031 237.4375 204.851562 231.546875 205.164062 230.398438 C 205.476562 229.253906 208.609375 229.773438 211.953125 229.410156 C 215.292969 229.042969 219.519531 226.75 223.75 223.882812 C 227.980469 221.015625 230.847656 216.171875 232.46875 213.566406 C 234.085938 210.957031 237.167969 203.972656 237.0625 200.691406 C 236.957031 197.40625 236.019531 194.851562 235.964844 194.539062 C 235.914062 194.226562 235.441406 193.601562 235.078125 192.144531 C 234.710938 190.683594 235.234375 189.746094 235.390625 189.277344 C 235.546875 188.808594 238.523438 185.15625 239.253906 184.429688 C 239.984375 183.699219 239.984375 179.789062 239.984375 179.214844 C 239.984375 178.644531 240.246094 174.734375 240.613281 174.734375 C 240.976562 174.734375 242.699219 174.214844 244.007812 172.546875 C 245.308594 170.875 244.632812 169.625 244.738281 168.792969 " fill-opacity="1" fill-rule="nonzero"/></g><path fill="rgb(94.898987%, 52.938843%, 1.959229%)" d="M 206.554688 135.246094 C 207.839844 138.988281 209.59375 143.664062 211.929688 148.808594 C 212.398438 146.117188 212.984375 143.429688 213.683594 140.976562 C 210.175781 132.558594 208.65625 126.246094 208.65625 126.128906 C 208.425781 125.078125 207.488281 124.375 206.4375 124.375 C 205.386719 124.375 204.449219 124.960938 204.097656 126.011719 C 203.867188 126.714844 201.644531 133.496094 199.890625 143.546875 C 201.292969 145.066406 202.695312 146.585938 203.980469 148.105469 C 204.800781 143.078125 205.734375 138.636719 206.554688 135.246094 Z M 206.554688 135.246094 " fill-opacity="1" fill-rule="nonzero"/><g clip-path="url(#clip-1)"><path fill="rgb(94.898987%, 52.938843%, 1.959229%)" d="M 281.132812 188.316406 C 280.898438 187.03125 279.730469 186.214844 278.445312 186.449219 C 262.546875 189.253906 248.871094 210.292969 239.519531 229.816406 C 230.867188 195.917969 219.527344 169.964844 191.589844 141.441406 C 190.890625 140.742188 189.839844 140.507812 188.902344 140.976562 C 187.96875 141.441406 187.5 142.378906 187.617188 143.429688 C 189.953125 159.5625 189.488281 171.835938 189.253906 182.707031 C 188.902344 194.164062 188.550781 204.097656 191.242188 216.023438 C 196.96875 242.089844 214.269531 250.855469 221.398438 253.429688 C 222.335938 253.78125 222.917969 254.597656 222.917969 255.53125 C 222.917969 259.273438 225.609375 262.3125 228.882812 262.3125 L 245.128906 262.3125 C 248.402344 262.3125 251.089844 259.273438 251.089844 255.53125 C 251.089844 255.183594 251.324219 254.832031 251.675781 254.714844 C 259.976562 251.792969 266.753906 245.246094 270.847656 236.480469 C 274.351562 228.882812 275.988281 220.230469 275.871094 209.242188 C 275.871094 204.214844 276.457031 200.007812 277.976562 195.800781 C 277.976562 195.683594 278.09375 195.449219 278.210938 195.097656 C 279.144531 192.175781 279.730469 191.007812 279.964844 190.65625 C 280.78125 190.1875 281.25 189.253906 281.132812 188.316406 Z M 195.800781 215.085938 C 193.34375 203.75 193.578125 194.164062 193.929688 182.941406 C 194.28125 173.472656 194.515625 163.070312 193.226562 149.859375 C 218.359375 177.214844 228.296875 202.8125 236.480469 236.597656 C 235.191406 238.699219 234.023438 240.570312 232.855469 242.089844 C 229.113281 238.464844 227.59375 234.140625 227.476562 234.140625 C 227.011719 232.972656 225.726562 232.269531 224.554688 232.738281 C 223.386719 233.207031 222.683594 234.492188 223.152344 235.660156 C 223.269531 235.894531 225.140625 241.273438 229.933594 245.714844 C 227.359375 248.519531 225.375 249.6875 224.789062 250.039062 C 224.320312 249.6875 223.738281 249.335938 223.152344 249.105469 C 216.488281 246.765625 201.058594 238.933594 195.800781 215.085938 Z M 273.652344 194.164062 C 271.898438 198.957031 271.195312 203.632812 271.195312 209.242188 C 271.3125 219.527344 269.792969 227.476562 266.636719 234.492188 C 263.132812 242.207031 257.285156 247.816406 250.15625 250.273438 C 249.804688 250.390625 246.882812 250.742188 246.882812 250.742188 C 249.453125 247.46875 250.507812 244.542969 250.625 244.3125 C 251.089844 243.140625 250.390625 241.738281 249.21875 241.390625 C 248.050781 240.921875 246.648438 241.621094 246.179688 242.792969 C 246.179688 242.792969 244.429688 247.585938 239.984375 251.089844 C 238.699219 252.144531 238.933594 254.246094 240.453125 255.066406 C 241.621094 255.765625 246.53125 255.417969 246.53125 255.417969 C 246.53125 255.417969 246.53125 255.53125 246.53125 255.53125 C 246.53125 256.703125 245.832031 257.636719 245.246094 257.636719 L 228.882812 257.636719 C 228.296875 257.636719 227.59375 256.703125 227.59375 255.53125 C 227.59375 254.949219 227.476562 254.363281 227.359375 253.78125 C 230.402344 252.027344 238.582031 245.714844 245.949219 227.246094 C 252.960938 213.683594 263.015625 197.902344 274.234375 192.527344 C 274.121094 192.992188 273.652344 194.046875 273.652344 194.164062 Z M 273.652344 194.164062 " fill-opacity="1" fill-rule="nonzero"/></g><path fill="rgb(94.898987%, 52.938843%, 1.959229%)" d="M 223.855469 226.074219 C 223.855469 226.386719 223.796875 226.683594 223.675781 226.96875 C 223.558594 227.257812 223.390625 227.507812 223.167969 227.730469 C 222.949219 227.949219 222.699219 228.117188 222.410156 228.234375 C 222.125 228.355469 221.828125 228.414062 221.515625 228.414062 C 221.207031 228.414062 220.910156 228.355469 220.621094 228.234375 C 220.335938 228.117188 220.082031 227.949219 219.863281 227.730469 C 219.644531 227.507812 219.476562 227.257812 219.355469 226.96875 C 219.238281 226.683594 219.179688 226.386719 219.179688 226.074219 C 219.179688 225.765625 219.238281 225.46875 219.355469 225.179688 C 219.476562 224.894531 219.644531 224.640625 219.863281 224.421875 C 220.082031 224.203125 220.335938 224.035156 220.621094 223.914062 C 220.910156 223.796875 221.207031 223.738281 221.515625 223.738281 C 221.828125 223.738281 222.125 223.796875 222.410156 223.914062 C 222.699219 224.035156 222.949219 224.203125 223.167969 224.421875 C 223.390625 224.640625 223.558594 224.894531 223.675781 225.179688 C 223.796875 225.46875 223.855469 225.765625 223.855469 226.074219 Z M 223.855469 226.074219 " fill-opacity="1" fill-rule="nonzero"/><g clip-path="url(#clip-2)"><path fill="rgb(94.898987%, 52.938843%, 1.959229%)" d="M 218.828125 167.628906 L 227.945312 167.628906 C 227.828125 169.964844 227.828125 172.304688 227.710938 174.640625 L 223.152344 174.640625 C 224.089844 176.160156 224.90625 177.796875 225.726562 179.316406 L 227.59375 179.316406 C 227.59375 180.484375 227.59375 181.773438 227.59375 182.941406 C 228.296875 184.460938 231.804688 191.707031 232.269531 193.109375 C 232.269531 192.410156 232.269531 191.707031 232.269531 191.007812 L 245.714844 191.007812 C 245.714844 193.34375 245.597656 195.800781 245.597656 198.019531 L 234.375 198.019531 C 234.960938 199.539062 235.542969 201.175781 236.128906 202.695312 L 245.480469 202.695312 C 245.363281 205.035156 245.363281 207.371094 245.246094 209.476562 C 246.882812 206.90625 248.519531 204.449219 250.273438 202.230469 C 251.324219 200.710938 252.492188 199.304688 253.664062 198.019531 L 250.507812 198.019531 C 250.507812 195.683594 250.625 193.34375 250.625 191.007812 L 260.207031 191.007812 C 260.207031 191.125 260.207031 191.125 260.207031 191.242188 C 261.027344 190.539062 264.183594 187.96875 265 187.382812 C 265 186.683594 265 185.863281 265 185.160156 C 265 166.226562 262.546875 148.339844 257.988281 134.78125 C 253.078125 120.519531 246.414062 112.6875 239.050781 112.6875 C 231.6875 112.6875 225.023438 120.519531 220.347656 134.78125 C 217.777344 142.496094 215.90625 151.613281 214.738281 161.550781 C 215.203125 162.367188 218.007812 166.34375 218.828125 167.628906 Z M 226.074219 132.792969 C 226.191406 132.792969 230.632812 132.792969 230.632812 132.792969 C 230.515625 133.609375 230.402344 134.429688 230.285156 135.246094 C 230.050781 136.652344 229.933594 138.171875 229.816406 139.691406 L 223.738281 139.691406 C 224.4375 137.234375 225.257812 134.898438 226.074219 132.792969 Z M 239.050781 117.832031 C 239.984375 119.351562 241.039062 122.855469 241.972656 128.117188 L 236.128906 128.117188 C 237.0625 122.855469 238.117188 119.351562 239.050781 117.832031 Z M 242.675781 132.792969 C 243.023438 134.898438 243.257812 137.117188 243.492188 139.691406 L 234.375 139.691406 C 234.609375 137.234375 234.960938 134.898438 235.191406 132.792969 Z M 254.363281 139.691406 L 248.285156 139.691406 C 248.167969 138.171875 247.933594 136.652344 247.816406 135.246094 C 247.699219 134.429688 247.585938 133.609375 247.46875 132.792969 L 252.027344 132.792969 C 252.84375 134.898438 253.664062 137.234375 254.363281 139.691406 Z M 245.011719 155.820312 C 245.128906 158.042969 245.246094 160.496094 245.363281 162.953125 L 232.738281 162.953125 C 232.855469 160.496094 232.972656 158.160156 233.089844 155.820312 Z M 233.441406 151.144531 C 233.671875 148.691406 233.789062 146.46875 234.023438 144.25 L 244.078125 144.25 C 244.3125 146.46875 244.429688 148.691406 244.660156 151.144531 Z M 249.6875 155.820312 L 257.988281 155.820312 C 258.339844 158.160156 258.6875 160.496094 258.921875 162.953125 L 250.039062 162.953125 C 249.921875 160.496094 249.804688 158.160156 249.6875 155.820312 Z M 259.390625 167.628906 C 259.625 169.964844 259.742188 172.304688 259.859375 174.640625 L 250.390625 174.640625 C 250.390625 172.304688 250.273438 169.964844 250.15625 167.628906 Z M 249.335938 151.144531 C 249.21875 148.808594 248.988281 146.46875 248.753906 144.25 L 255.53125 144.25 C 256.117188 146.46875 256.585938 148.691406 257.050781 151.144531 Z M 229.347656 144.367188 C 229.113281 146.585938 228.996094 148.808594 228.765625 151.261719 L 221.050781 151.261719 C 221.515625 148.925781 221.984375 146.585938 222.570312 144.367188 Z M 219.179688 162.953125 C 219.414062 160.496094 219.761719 158.160156 220.113281 155.820312 C 220.230469 155.820312 220.347656 155.820312 220.464844 155.820312 L 228.414062 155.820312 C 228.296875 158.160156 228.179688 160.496094 228.0625 162.953125 Z M 232.621094 167.628906 L 245.597656 167.628906 C 245.714844 169.847656 245.714844 172.1875 245.832031 174.640625 L 232.386719 174.640625 C 232.386719 172.1875 232.503906 169.847656 232.621094 167.628906 Z M 232.269531 186.332031 C 232.269531 185.980469 232.269531 185.511719 232.269531 185.160156 C 232.269531 183.175781 232.269531 181.1875 232.269531 179.316406 L 245.714844 179.316406 C 245.714844 181.1875 245.714844 183.175781 245.714844 185.160156 C 245.714844 185.511719 245.714844 185.980469 245.714844 186.332031 Z M 250.507812 186.332031 C 250.507812 185.980469 250.507812 185.511719 250.507812 185.160156 C 250.507812 183.175781 250.507812 181.304688 250.507812 179.316406 L 260.09375 179.316406 C 260.09375 181.1875 260.207031 183.175781 260.207031 185.160156 C 260.207031 185.511719 260.207031 185.980469 260.207031 186.332031 Z M 250.039062 128.117188 L 246.765625 128.117188 C 246.179688 125.078125 245.714844 122.507812 245.128906 120.519531 C 246.765625 122.390625 248.402344 124.960938 250.039062 128.117188 Z M 233.089844 120.636719 C 232.503906 122.625 231.921875 125.078125 231.453125 128.234375 L 228.179688 128.234375 C 229.699219 124.960938 231.335938 122.390625 233.089844 120.636719 Z M 233.089844 120.636719 " fill-opacity="1" fill-rule="nonzero"/></g><path fill="rgb(94.898987%, 52.938843%, 1.959229%)" d="M 242.324219 214.386719 C 243.257812 212.75 244.195312 211.230469 245.128906 209.710938 L 238.582031 209.710938 C 239.050781 211.230469 239.636719 212.867188 240.101562 214.386719 Z M 242.324219 214.386719 " fill-opacity="1" fill-rule="nonzero"/><g clip-path="url(#clip-3)"><g clip-path="url(#clip-4)"><g clip-path="url(#clip-5)"><path fill="rgb(94.898987%, 52.938843%, 1.959229%)" d="M 123.703125 107.753906 C 123.363281 108.476562 123.332031 109.214844 123.617188 109.960938 C 124.046875 111.132812 124.683594 112.175781 125.527344 113.09375 C 125.726562 113.328125 125.976562 113.425781 126.28125 113.394531 C 127.15625 113.265625 128.023438 113.296875 128.886719 113.484375 C 128.777344 113.6875 128.628906 113.851562 128.4375 113.976562 C 128.210938 114.128906 128.085938 114.34375 128.0625 114.617188 C 128.027344 114.886719 128.101562 115.125 128.289062 115.324219 C 128.789062 115.804688 129.175781 116.222656 129.546875 116.609375 C 130.800781 118.007812 132.21875 119.210938 133.804688 120.214844 C 134.050781 120.375 134.3125 120.40625 134.585938 120.304688 C 134.75 120.246094 134.886719 120.148438 134.984375 120.003906 C 135.074219 120.230469 135.148438 120.460938 135.203125 120.695312 C 135.253906 120.933594 135.378906 121.121094 135.582031 121.253906 C 138.363281 123.054688 141.359375 124.789062 144.488281 126.414062 C 147.613281 128.042969 150.453125 129.339844 153.367188 130.523438 C 153.59375 130.613281 153.816406 130.609375 154.039062 130.511719 C 154.40625 130.34375 154.785156 130.222656 155.179688 130.148438 L 155.238281 130.324219 C 155.101562 130.539062 155.070312 130.769531 155.136719 131.015625 C 155.214844 131.292969 155.394531 131.484375 155.664062 131.589844 C 157.355469 132.308594 159.113281 132.757812 160.941406 132.9375 C 161.523438 133.007812 162.113281 133.085938 162.867188 133.242188 C 163.144531 133.28125 163.382812 133.203125 163.585938 133.015625 C 163.792969 132.835938 163.894531 132.613281 163.890625 132.339844 C 163.882812 132.109375 163.929688 131.890625 164.03125 131.679688 C 164.683594 132.28125 165.207031 132.976562 165.609375 133.765625 C 165.757812 134.03125 165.984375 134.179688 166.289062 134.207031 C 169.207031 134.480469 171.03125 133.957031 171.710938 132.640625 C 173.523438 129.292969 166.492188 123.699219 161.78125 120.460938 C 161.917969 119.765625 162 119.070312 162.023438 118.363281 C 162.050781 117.660156 162.019531 116.957031 161.929688 116.257812 C 161.839844 115.558594 161.699219 114.871094 161.496094 114.191406 C 161.296875 113.515625 161.046875 112.859375 160.742188 112.226562 C 160.433594 111.589844 160.082031 110.980469 159.675781 110.402344 C 159.273438 109.824219 158.824219 109.28125 158.335938 108.777344 C 157.84375 108.269531 157.316406 107.808594 156.75 107.386719 C 156.183594 106.964844 155.585938 106.59375 154.960938 106.269531 C 154.335938 105.945312 153.6875 105.671875 153.015625 105.453125 C 152.34375 105.230469 151.660156 105.066406 150.964844 104.957031 C 150.269531 104.847656 149.566406 104.796875 148.863281 104.800781 C 148.15625 104.804688 147.457031 104.863281 146.761719 104.980469 C 146.066406 105.097656 145.382812 105.269531 144.714844 105.496094 C 144.046875 105.726562 143.402344 106.003906 142.78125 106.335938 C 142.15625 106.667969 141.566406 107.046875 141.003906 107.472656 C 140.445312 107.902344 139.921875 108.371094 139.433594 108.882812 C 134.070312 106.902344 125.453125 104.378906 123.703125 107.753906 Z M 139.066406 114.59375 C 141.476562 117.175781 144.246094 119.277344 147.378906 120.898438 C 150.511719 122.523438 153.828125 123.574219 157.324219 124.054688 L 158.453125 124.207031 L 158.386719 124.339844 C 158.296875 124.515625 158.167969 124.644531 157.996094 124.734375 C 157.820312 124.820312 157.636719 124.847656 157.445312 124.8125 L 156.316406 124.65625 C 153.019531 124.207031 149.890625 123.21875 146.9375 121.6875 C 143.980469 120.15625 141.371094 118.171875 139.101562 115.738281 L 138.378906 114.933594 C 138.25 114.800781 138.171875 114.640625 138.148438 114.457031 C 138.121094 114.273438 138.152344 114.097656 138.234375 113.933594 L 138.304688 113.804688 Z M 138.269531 110.316406 C 137.917969 110.808594 137.597656 111.320312 137.308594 111.855469 L 136.675781 113.09375 C 136.34375 113.734375 136.285156 114.398438 136.503906 115.089844 C 136.621094 115.460938 136.816406 115.792969 137.082031 116.078125 L 137.867188 116.929688 C 140.269531 119.507812 143.039062 121.609375 146.171875 123.230469 C 149.304688 124.855469 152.617188 125.902344 156.109375 126.382812 L 157.25 126.53125 C 157.796875 126.605469 158.316406 126.515625 158.804688 126.261719 C 159.296875 126.007812 159.667969 125.632812 159.921875 125.144531 L 160.566406 123.914062 C 160.835938 123.371094 161.074219 122.8125 161.273438 122.242188 C 168.675781 127.441406 170.722656 130.886719 170.210938 131.863281 C 169.992188 132.28125 169.015625 132.664062 166.957031 132.53125 C 166.347656 131.390625 165.492188 130.488281 164.382812 129.820312 C 164.128906 129.695312 163.871094 129.699219 163.617188 129.824219 C 162.96875 130.160156 162.542969 130.675781 162.339844 131.375 C 161.898438 131.3125 161.519531 131.269531 161.164062 131.21875 C 159.738281 131.085938 158.359375 130.757812 157.023438 130.242188 C 156.949219 129.652344 156.710938 129.132812 156.3125 128.691406 C 156.140625 128.484375 155.921875 128.378906 155.652344 128.375 C 154.984375 128.390625 154.339844 128.527344 153.722656 128.789062 C 150.960938 127.648438 148.136719 126.339844 145.316406 124.878906 C 142.5 123.417969 139.511719 121.683594 136.871094 119.992188 C 136.726562 119.355469 136.46875 118.769531 136.097656 118.230469 C 135.902344 117.957031 135.636719 117.835938 135.296875 117.871094 C 134.886719 117.921875 134.511719 118.070312 134.171875 118.3125 C 132.960938 117.480469 131.867188 116.515625 130.882812 115.425781 L 130.210938 114.722656 C 130.660156 114.148438 130.828125 113.5 130.722656 112.78125 C 130.671875 112.503906 130.523438 112.296875 130.269531 112.164062 C 129.089844 111.648438 127.855469 111.46875 126.574219 111.625 C 125.277344 110.023438 125.027344 109.003906 125.242188 108.585938 C 125.757812 107.578125 129.75 107.265625 138.269531 110.316406 Z M 138.269531 110.316406 " fill-opacity="1" fill-rule="nonzero"/></g></g></g></svg>